<svg width="159" height="157" viewBox="0 0 159 157" fill="none" xmlns="http://www.w3.org/2000/svg">
<path d="M92.3934 155.459C128.876 149.253 156.657 117.518 156.657 79.2891C156.648 36.5996 122.033 2 79.3241 2C36.6152 2 2 36.5996 2 79.2891C2 117.518 29.7818 149.253 66.264 155.459" stroke="#00BAD5" stroke-width="3" stroke-linecap="round" stroke-linejoin="round"/>
<path d="M29.5367 64.3422L18.7847 59.7539L20.0216 57.1488L30.7736 61.7371L29.5367 64.3422Z" fill="#FFF8EC"/>
<path d="M33.8556 45.7368C32.5704 45.3213 31.313 45.6906 30.5548 46.614C29.3991 48.0267 29.8244 49.9749 31.202 51.1013C32.6351 52.274 34.6415 52.274 35.7879 50.8797C36.5276 49.9841 36.6478 48.8023 36.0376 47.5281L37.9792 45.1644C39.6619 47.4634 39.514 50.3996 37.7943 52.4955C36.7865 53.7236 35.3996 54.5361 33.7539 54.7115C32.0341 54.9054 30.5733 54.3884 29.2327 53.2896C26.8842 51.3691 26.4219 47.6112 28.5022 45.072C29.5008 43.8532 30.6473 43.1423 32.1266 42.8745C33.532 42.6252 34.7617 42.7914 35.7972 43.3823L33.8556 45.746V45.7368Z" fill="#FFF8EC"/>
<path d="M46.9705 42.7623L40.3647 33.189L45.7574 29.5745L47.2359 31.7226L44.2126 33.7494L45.2361 35.2344L48.1647 33.273L49.6432 35.4212L46.7146 37.3826L47.8519 39.0264L50.8752 36.9996L52.3537 39.1478L46.961 42.7623H46.9705Z" fill="#FFF8EC"/>
<path d="M75.3611 25.4886C74.7226 24.2871 73.5659 23.6723 72.3723 23.8027C70.5587 24.017 69.5038 25.7215 69.7074 27.5005C69.9202 29.3633 71.3637 30.7697 73.1588 30.5555C74.3154 30.4251 75.2223 29.6614 75.6757 28.3015L78.7292 27.9475C78.3313 30.7884 76.1753 32.8096 73.4827 33.1262C71.9004 33.3125 70.3366 32.9213 69.0319 31.8968C67.6625 30.8256 66.9685 29.4285 66.7742 27.6961C66.4318 24.6596 68.7173 21.6139 71.9837 21.232C73.5567 21.055 74.8706 21.3438 76.1198 22.1821C77.3042 22.9924 78.0722 23.9704 78.4053 25.1253L75.3518 25.4793L75.3611 25.4886Z" fill="#FFF8EC"/>
<path d="M91.13 33.7191L89.2959 29.5024H89.269L88.5891 33.2002L85.9229 32.6625L88.0254 21.1821L91.5863 21.9085C92.7226 22.1349 93.5636 22.4745 94.0825 22.8518C95.1562 23.6537 95.7377 25.1724 95.4335 26.795C95.1025 28.6062 93.7962 29.8891 92.0605 29.8608L94.3062 34.37L91.13 33.7191ZM90.6558 27.7006C91.7563 27.927 92.5347 27.5214 92.7405 26.4176C92.9194 25.4271 92.32 24.7196 91.2732 24.5121L90.2174 24.2951L89.6359 27.4931L90.6648 27.7006H90.6558Z" fill="#FFF8EC"/>
<path d="M100.31 35.3846L104.825 25.978L109.901 28.5604L108.889 30.6686L106.051 29.2208L105.352 30.6856L108.108 32.0826L107.096 34.1908L104.34 32.7938L103.567 34.4109L106.405 35.8588L105.393 37.967L100.318 35.3846H100.31Z" fill="#FFF8EC"/>
<path d="M116.204 47.8044L116.927 46.1932L113.903 43.4923L112.296 44.3212L109.9 42.1884L121.329 36.7679L123.088 38.3326L118.619 49.9558L116.204 47.8044ZM119.751 40.2325L119.722 40.186L116.119 42.3094L117.944 43.9393L119.751 40.2325Z" fill="#FFF8EC"/>
<path d="M127.536 62.0544L134.97 58.1401V58.1044L126.411 60.0347L125.494 58.3904L131.803 52.2508L124.359 56.3707L123.088 54.0829L132.955 48.7566L134.734 51.947L129.315 57.3805L129.334 57.4073L136.886 55.8077L138.674 59.0159L128.807 64.3422L127.536 62.0544Z" fill="#FFF8EC"/>
<path d="M111.751 81.1453C110.76 75.9464 108.055 71.7099 103.912 68.8801C101.029 66.914 97.9906 65.9269 95.31 65.4744L94.0835 62.8667L93.3036 61.205C92.1014 58.6549 90.022 56.5161 87.122 54.8379C84.3034 53.2092 80.843 52.3536 77.1226 52.3536C69.6901 52.3536 63.0049 55.784 59.6663 61.3037C56.937 65.8364 55.8648 70.3937 56.474 74.8687L55.5317 75.2554L55.4343 75.2965L55.3368 75.3458L54.1671 75.9052C51.852 76.9993 49.9187 78.5705 48.416 80.5777C45.1018 85.0198 44.2895 90.334 46.1091 95.5576C48.1723 101.489 53.0705 105.199 60.0969 106.285L74.8076 151.463C75.8067 155.197 81.0379 155.189 82.0208 151.455C82.0208 151.455 89.7945 130.437 93.458 118.336C93.8235 118.402 94.1972 118.451 94.5871 118.451H94.7495C97.6819 118.377 100.249 116.567 101.126 113.951C101.825 111.87 101.516 109.937 101.289 108.522C101.199 107.954 101.094 107.313 101.126 107.017C101.362 104.919 102.58 103.792 104.725 101.982C105.293 101.505 105.927 100.97 106.552 100.353C109.68 97.2933 111.67 93.2625 112.157 88.9931C112.433 86.5746 112.303 83.9422 111.775 81.1618L111.751 81.1453ZM108.177 88.5078C107.795 91.8476 106.227 95.0147 103.766 97.4249C103.246 97.935 102.694 98.3956 102.15 98.8563C99.9645 100.707 97.5682 102.723 97.1377 106.54C96.9102 108.539 97.9906 110.669 97.3327 112.627C96.959 113.737 95.773 114.363 94.6358 114.396C94.6114 114.396 94.5952 114.396 94.5708 114.396C93.1168 114.396 92.0365 113.236 91.9715 111.796C91.9065 110.34 92.6944 108.983 92.4832 107.51C92.207 105.561 91.4272 103.924 90.2169 102.764C88.0806 100.724 85.2456 100.057 82.1995 100.057C78.9341 100.057 75.4331 100.831 72.322 101.522C70.2912 101.966 68.4148 102.385 67.0339 102.492C66.3028 102.55 65.4905 102.583 64.6295 102.583C59.3739 102.583 52.2988 101.201 49.8619 94.2003C48.1236 89.1988 49.8375 85.3489 51.5921 83.0044C52.6968 81.5319 54.1265 80.372 55.8485 79.5577L57.0182 79.0065L61.0554 77.353C61.0554 77.353 60.8279 76.3577 60.6898 75.8147L60.633 75.5597C59.7476 71.6358 60.5599 67.5474 63.0536 63.4096C65.921 58.6631 71.6802 56.3845 77.1064 56.3845C80.0469 56.3845 82.89 57.0508 85.1238 58.3423C87.3089 59.6009 88.8441 61.1474 89.6808 62.9407L90.4687 64.6024L88.6573 64.7916C87.9343 64.8657 87.2033 64.9644 86.4885 65.1042C83.8485 65.6307 81.3304 66.6919 78.9991 68.2549C78.5036 68.5839 78.1705 69.0939 78.0487 69.678C77.9349 70.2703 78.0487 70.8626 78.3736 71.3644C78.796 72.0142 79.5027 72.368 80.2256 72.368C80.648 72.368 81.0704 72.2446 81.4522 71.9978C83.2961 70.7556 85.2781 69.9248 87.3414 69.5052C88.4623 69.2831 89.7458 69.1515 91.1104 69.1515C94.4815 69.1515 98.3724 69.9577 101.67 72.2117C104.96 74.4574 107.032 77.715 107.828 81.8939C108.282 84.263 108.396 86.4841 108.169 88.4913L108.177 88.5078Z" fill="#FFF8EC"/>
<path d="M3.19873 78.7292H22.3811" stroke="#00BAD5" stroke-width="2" stroke-linecap="round" stroke-linejoin="round"/>
<path d="M135.077 78.7292L155.458 78.7292" stroke="#00BAD5" stroke-width="2" stroke-linecap="round" stroke-linejoin="round"/>
</svg>
